<?xml version="1.0" encoding="iso-8859-1"?>
<!DOCTYPE svg PUBLIC "-//W3C//DTD SVG 1.1//EN" "http://www.w3.org/Graphics/SVG/1.1/DTD/svg11.dtd">
<svg fill="#e93cac" version="1.1" id="Capa_1" xmlns="http://www.w3.org/2000/svg" xmlns:xlink="http://www.w3.org/1999/xlink" 
	 width="800px" height="800px" viewBox="0 0 421.95 421.95"
	 xml:space="preserve">
	<!-- <rect width="421.95" height="421.95" fill="#d5d8de"/> -->
	<path transform="translate(-1695,-360)scale(5)" d="M399.03,124.963c36.632,10.826,25.031-47.951-4.519-23.141c-1.456,1.223-1.93,0.959-0.64-0.6
		c24.238-29.268-36.444-39.678-23.01-2.402c0.314,0.875,0.014,0.988-0.486,0.152c-20.98-35.049-51.024,22.143-10.401,20.348
		c1.705-0.074,1.812,0.324,0.163,0.705c-38.703,8.959,10.56,53.367,16.745,16.307c0.288-1.729,0.521-1.467,0.583,0.387
		c1.184,34.889,52.246,5.627,21.363-11.049C396.972,124.666,397.006,124.365,399.03,124.963z M386.777,117.714
		c-1.693-0.256-2.249,0.664-1.23,2.043s1.188,2.996,0.381,3.594c-0.811,0.596-2.304-0.045-3.32-1.424
		c-1.018-1.379-2.061-1.121-2.314,0.574c-0.255,1.695-1.278,2.959-2.271,2.809c-0.994-0.15-1.599-1.658-1.343-3.354
		c0.255-1.695-0.664-2.25-2.043-1.232c-1.38,1.018-2.996,1.189-3.594,0.381c-0.597-0.809,0.044-2.303,1.424-3.32
		c1.379-1.018,1.121-2.061-0.574-2.316c-1.694-0.255-2.959-1.277-2.81-2.271c0.149-0.994,1.658-1.598,3.354-1.342
		c1.694,0.256,2.249-0.664,1.23-2.043s-1.188-2.996-0.38-3.592c0.809-0.598,2.303,0.043,3.319,1.422
		c1.018,1.379,2.061,1.121,2.314-0.574c0.255-1.695,1.277-2.959,2.271-2.809c0.993,0.15,1.599,1.66,1.342,3.354
		c-0.256,1.695,0.663,2.25,2.044,1.232c1.379-1.018,2.995-1.189,3.592-0.381c0.598,0.809-0.043,2.305-1.422,3.322
		c-1.38,1.018-1.121,2.059,0.572,2.314c1.694,0.256,2.959,1.277,2.811,2.271C389.981,117.367,388.473,117.97,386.777,117.714z"/>
</svg>